<?xml version="1.0" encoding="UTF-8" standalone="no"?>
<svg
   xmlns:dc="http://purl.org/dc/elements/1.1/"
   xmlns:cc="http://creativecommons.org/ns#"
   xmlns:rdf="http://www.w3.org/1999/02/22-rdf-syntax-ns#"
   xmlns:svg="http://www.w3.org/2000/svg"
   xmlns="http://www.w3.org/2000/svg"
   xmlns:sodipodi="http://sodipodi.sourceforge.net/DTD/sodipodi-0.dtd"
   xmlns:inkscape="http://www.inkscape.org/namespaces/inkscape"
   id="svg"
   version="1.1"
   width="400"
   height="365.61085972850674"
   viewBox="0, 0, 400,365.61085972850674"
   sodipodi:docname="roost-logo.svg"
   inkscape:version="1.0.1 (3bc2e813f5, 2020-09-07)">
  <metadata
     id="metadata60">
    <rdf:RDF>
      <cc:Work
         rdf:about="">
        <dc:format>image/svg+xml</dc:format>
        <dc:type
           rdf:resource="http://purl.org/dc/dcmitype/StillImage" />
      </cc:Work>
    </rdf:RDF>
  </metadata>
  <defs
     id="defs58" />
  <sodipodi:namedview
     pagecolor="#ffffff"
     bordercolor="#666666"
     borderopacity="1"
     objecttolerance="10"
     gridtolerance="10"
     guidetolerance="10"
     inkscape:pageopacity="0"
     inkscape:pageshadow="2"
     inkscape:window-width="1920"
     inkscape:window-height="2097"
     id="namedview56"
     showgrid="false"
     inkscape:zoom="4.3175"
     inkscape:cx="200"
     inkscape:cy="182.80544"
     inkscape:window-x="1920"
     inkscape:window-y="34"
     inkscape:window-maximized="0"
     inkscape:current-layer="svg" />
  <g
     id="svgg"
     style="fill:#ea2845;fill-opacity:1">
    <path
       id="path0"
       d="M309.502 20.708 C 309.502 26.602,306.767 27.974,301.863 24.539 C 293.950 18.997,285.973 20.762,285.973 28.054 C 285.973 31.538,285.668 34.389,285.295 34.389 C 284.923 34.389,281.054 33.123,276.698 31.575 C 267.401 28.272,258.852 29.358,254.267 34.425 C 251.103 37.920,251.155 38.009,256.371 38.009 C 262.663 38.009,266.063 40.867,266.063 46.154 C 266.063 51.662,262.610 54.291,255.294 54.352 L 248.869 54.405 254.780 59.782 C 259.037 63.654,262.514 65.158,267.208 65.158 C 274.888 65.158,275.136 63.405,263.448 91.654 C 255.174 111.650,249.774 133.336,249.774 146.561 L 249.774 153.438 261.991 154.157 C 312.516 157.134,333.072 221.556,294.548 256.192 C 282.210 267.284,273.121 270.054,220.242 278.831 L 173.515 286.588 169.800 293.872 L 166.084 301.155 170.372 304.699 C 197.122 326.801,252.739 330.694,288.235 312.949 C 348.549 282.797,371.478 217.117,345.522 148.852 C 338.195 129.582,336.611 117.250,340.737 111.607 C 342.717 108.900,343.684 110.387,348.187 123.060 C 355.391 143.334,364.907 150.202,377.485 144.204 C 394.281 136.194,391.988 123.738,369.491 100.768 L 353.846 84.794 364.035 86.017 C 374.202 87.238,380.343 84.731,372.941 82.382 C 359.855 78.228,349.639 55.769,353.749 40.187 C 356.841 28.467,355.212 28.366,345.474 39.672 L 337.805 48.574 334.790 39.667 C 331.215 29.107,327.255 24.353,318.172 19.717 C 309.672 15.379,309.502 15.398,309.502 20.708 M330.901 71.137 C 336.221 82.289,321.703 91.810,313.651 82.450 C 306.608 74.262,311.363 64.626,322.004 65.519 C 327.044 65.943,329.018 67.189,330.901 71.137 M98.643 81.519 C 29.358 95.722,4.217 179.297,54.037 229.798 C 68.948 244.912,79.329 251.234,66.389 237.320 C 17.152 184.375,69.142 101.798,138.271 123.150 C 153.415 127.827,153.258 128.306,136.581 128.306 C 87.946 128.306,63.163 183.780,96.563 217.885 C 101.688 223.119,104.496 225.705,102.801 223.631 C 79.434 195.033,100.740 152.036,138.277 152.036 C 157.842 152.036,178.973 170.464,179.146 187.676 C 179.213 194.371,181.510 193.726,194.149 183.462 C 208.097 172.136,209.146 167.932,203.481 146.071 C 191.678 100.522,145.287 71.957,98.643 81.519 M244.935 162.891 C 235.935 164.772,227.857 168.730,224.303 173.000 C 221.668 176.165,177.584 275.560,178.364 276.576 C 179.221 277.690,265.401 262.244,274.045 259.427 C 332.657 240.324,305.490 150.233,244.935 162.891 M139.367 233.767 C 111.991 254.640,81.350 277.998,71.275 285.674 L 52.957 299.632 63.513 317.468 C 69.318 327.279,74.388 335.625,74.780 336.016 C 75.441 336.678,185.579 203.229,188.778 197.891 C 190.863 194.410,193.413 192.559,139.367 233.767 M152.518 262.226 L 101.416 328.507 110.889 329.926 C 116.099 330.706,125.481 331.113,131.737 330.831 L 143.113 330.317 155.932 302.262 C 162.983 286.833,176.799 256.763,186.634 235.441 C 196.470 214.119,204.315 196.510,204.068 196.310 C 203.822 196.110,180.624 225.772,152.518 262.226 "
       stroke="none"
       fill="#000000"
       fill-rule="evenodd"
       style="fill:#ea2845;fill-opacity:1" />
  </g>
</svg>
